<svg xmlns="http://www.w3.org/2000/svg" xmlns:xlink="http://www.w3.org/1999/xlink" width="500" zoomAndPan="magnify" viewBox="0 0 375 374.999991" height="500" preserveAspectRatio="xMidYMid meet" version="1.0"><defs><g/><clipPath id="31c8716079"><path d="M 76 50.171875 L 299 50.171875 L 299 203.921875 L 76 203.921875 Z M 76 50.171875 " clip-rule="nonzero"/></clipPath></defs><rect x="-37.5" width="450" fill="#ffffff" y="-37.499999" height="449.999989" fill-opacity="1"/><rect x="-37.5" width="450" fill="#ffffff" y="-37.499999" height="449.999989" fill-opacity="1"/><rect x="-37.5" width="450" fill="#000000" y="-37.499999" height="449.999989" fill-opacity="1"/><g fill="#ffffff" fill-opacity="1"><g transform="translate(91.379845, 271.280377)"><g><path d="M 23.296875 0 L 23.640625 -4.15625 C 25.234375 -4.289062 26.394531 -4.441406 27.125 -4.609375 C 27.851562 -4.773438 28.359375 -5.007812 28.640625 -5.3125 C 28.921875 -5.613281 29.0625 -6.070312 29.0625 -6.6875 C 29.0625 -7.25 28.945312 -8.070312 28.71875 -9.15625 L 27.234375 -14.5625 C 24.796875 -14.65625 22.640625 -14.703125 20.765625 -14.703125 C 19.921875 -14.703125 18.160156 -14.585938 15.484375 -14.359375 L 14 -14.21875 L 12.25 -8.796875 C 11.96875 -7.765625 11.828125 -7.035156 11.828125 -6.609375 C 11.828125 -5.765625 12.070312 -5.175781 12.5625 -4.84375 C 13.050781 -4.519531 13.90625 -4.359375 15.125 -4.359375 L 18.15625 -4.359375 L 18.515625 -3.875 L 18.015625 0.421875 C 17.359375 0.378906 15.953125 0.296875 13.796875 0.171875 C 11.640625 0.0546875 9.617188 0 7.734375 0 C 5.765625 0 3.992188 0.0195312 2.421875 0.0625 C 0.859375 0.113281 -0.179688 0.164062 -0.703125 0.21875 L -0.21875 -4.359375 C 0.863281 -4.546875 1.753906 -4.988281 2.453125 -5.6875 C 3.160156 -6.394531 3.820312 -7.550781 4.4375 -9.15625 L 17.03125 -44.828125 L 27.796875 -45.953125 L 28.578125 -45.609375 C 29.273438 -42.929688 30.738281 -37.453125 32.96875 -29.171875 C 35.195312 -20.890625 37.109375 -14.238281 38.703125 -9.21875 C 39.222656 -7.53125 39.878906 -6.332031 40.671875 -5.625 C 41.472656 -4.925781 42.671875 -4.503906 44.265625 -4.359375 L 44.546875 -3.875 L 44.0625 0.21875 C 43.445312 0.164062 42.296875 0.113281 40.609375 0.0625 C 38.921875 0.0195312 37.207031 0 35.46875 0 C 32.976562 0 30.546875 0.0820312 28.171875 0.25 C 25.804688 0.414062 24.296875 0.519531 23.640625 0.5625 Z M 20.765625 -20.125 C 21.273438 -20.125 23.007812 -20.195312 25.96875 -20.34375 L 21.8125 -36.03125 L 20.90625 -36.03125 L 15.6875 -20.125 Z M 20.765625 -20.125 "/></g></g></g><g fill="#ffffff" fill-opacity="1"><g transform="translate(135.363365, 271.280377)"><g><path d="M 3.59375 -4.015625 C 5.375 -4.296875 6.59375 -4.859375 7.25 -5.703125 C 7.90625 -6.546875 8.234375 -8 8.234375 -10.0625 L 8.296875 -37.015625 C 8.296875 -38.472656 8.128906 -39.445312 7.796875 -39.9375 C 7.472656 -40.425781 6.796875 -40.671875 5.765625 -40.671875 L 3.59375 -40.609375 L 3.234375 -41.171875 L 3.796875 -45.25 L 13.234375 -45.1875 C 14.546875 -45.1875 16.457031 -45.253906 18.96875 -45.390625 C 21.476562 -45.535156 23.128906 -45.628906 23.921875 -45.671875 L 23.4375 -40.8125 C 21.84375 -40.625 20.679688 -40.351562 19.953125 -40 C 19.222656 -39.65625 18.753906 -39.164062 18.546875 -38.53125 C 18.335938 -37.894531 18.1875 -36.898438 18.09375 -35.546875 C 17.570312 -28.503906 17.3125 -19.894531 17.3125 -9.71875 C 17.3125 -8.445312 17.425781 -7.515625 17.65625 -6.921875 C 17.894531 -6.335938 18.316406 -5.941406 18.921875 -5.734375 C 19.535156 -5.523438 20.476562 -5.421875 21.75 -5.421875 C 24.09375 -5.421875 25.835938 -5.675781 26.984375 -6.1875 C 28.140625 -6.707031 29 -7.691406 29.5625 -9.140625 C 30.125 -10.597656 30.59375 -12.898438 30.96875 -16.046875 L 36.671875 -16.671875 L 37.15625 -15.96875 C 37.019531 -15.082031 36.75 -13.078125 36.34375 -9.953125 C 35.945312 -6.835938 35.609375 -3.566406 35.328125 -0.140625 L 34.625 0.5625 C 33.351562 0.519531 30.609375 0.414062 26.390625 0.25 C 22.171875 0.0820312 18.347656 0 14.921875 0 C 12.335938 0 9.875 0.09375 7.53125 0.28125 C 5.1875 0.46875 3.6875 0.609375 3.03125 0.703125 Z M 3.59375 -4.015625 "/></g></g></g><g fill="#ffffff" fill-opacity="1"><g transform="translate(172.661386, 271.280377)"><g><path d="M 3.09375 -3.875 C 5.15625 -4.289062 6.535156 -4.882812 7.234375 -5.65625 C 7.941406 -6.4375 8.296875 -7.8125 8.296875 -9.78125 L 8.296875 -37.015625 C 8.296875 -38.472656 8.128906 -39.445312 7.796875 -39.9375 C 7.472656 -40.425781 6.796875 -40.671875 5.765625 -40.671875 L 3.3125 -40.609375 L 2.953125 -41.171875 L 3.515625 -45.25 L 13.234375 -45.1875 C 14.773438 -45.1875 18.054688 -45.347656 23.078125 -45.671875 L 22.734375 -41.03125 C 20.953125 -40.789062 19.765625 -40.425781 19.171875 -39.9375 C 18.585938 -39.445312 18.25 -38.546875 18.15625 -37.234375 C 17.539062 -26.160156 17.234375 -16.847656 17.234375 -9.296875 C 17.234375 -7.367188 17.421875 -6.078125 17.796875 -5.421875 C 18.179688 -4.765625 18.910156 -4.4375 19.984375 -4.4375 C 20.503906 -4.4375 21.535156 -4.503906 23.078125 -4.640625 L 23.359375 -4.21875 L 22.734375 0.21875 L 20.203125 0.140625 L 12.390625 0 C 10.234375 0 6.992188 0.210938 2.671875 0.640625 Z M 3.09375 -3.875 "/></g></g></g><g fill="#ffffff" fill-opacity="1"><g transform="translate(198.347744, 271.280377)"><g><path d="M 22.9375 0.84375 C 18.664062 0.84375 14.957031 -0.046875 11.8125 -1.828125 C 8.675781 -3.609375 6.265625 -6.164062 4.578125 -9.5 C 2.890625 -12.832031 2.046875 -16.773438 2.046875 -21.328125 C 2.046875 -26.296875 3.050781 -30.632812 5.0625 -34.34375 C 7.082031 -38.050781 9.957031 -40.925781 13.6875 -42.96875 C 17.414062 -45.007812 21.742188 -46.03125 26.671875 -46.03125 C 28.410156 -46.03125 30.273438 -45.898438 32.265625 -45.640625 C 34.265625 -45.378906 35.96875 -45.109375 37.375 -44.828125 C 38.78125 -44.546875 39.671875 -44.359375 40.046875 -44.265625 L 40.46875 -43.34375 C 40.375 -43.019531 40.207031 -42.269531 39.96875 -41.09375 C 39.738281 -39.925781 39.484375 -38.351562 39.203125 -36.375 C 38.921875 -34.40625 38.707031 -32.320312 38.5625 -30.125 L 31.875 -29.703125 C 31.875 -29.890625 31.894531 -30.320312 31.9375 -31 C 31.988281 -31.675781 32.015625 -32.460938 32.015625 -33.359375 C 32.015625 -35.421875 31.378906 -36.929688 30.109375 -37.890625 C 28.847656 -38.859375 26.859375 -39.34375 24.140625 -39.34375 C 20.429688 -39.34375 17.601562 -38.023438 15.65625 -35.390625 C 13.707031 -32.765625 12.734375 -28.894531 12.734375 -23.78125 C 12.734375 -18.007812 13.773438 -13.53125 15.859375 -10.34375 C 17.953125 -7.15625 20.875 -5.5625 24.625 -5.5625 C 27.207031 -5.5625 29.222656 -6.347656 30.671875 -7.921875 C 32.128906 -9.492188 33.140625 -11.988281 33.703125 -15.40625 L 40.46875 -15.828125 C 40.320312 -15.035156 40.070312 -13.273438 39.71875 -10.546875 C 39.375 -7.828125 39.15625 -5.25 39.0625 -2.8125 L 38.359375 -1.96875 C 38.359375 -1.925781 37.570312 -1.65625 36 -1.15625 C 34.425781 -0.664062 32.5 -0.210938 30.21875 0.203125 C 27.945312 0.628906 25.519531 0.84375 22.9375 0.84375 Z M 22.9375 0.84375 "/></g></g></g><g fill="#ffffff" fill-opacity="1"><g transform="translate(241.697899, 271.280377)"><g><path d="M 39.203125 -13.296875 C 38.453125 -9.640625 37.816406 -5.300781 37.296875 -0.28125 L 36.59375 0.5 C 27.632812 0.164062 20.335938 0 14.703125 0 C 10.765625 0 6.753906 0.234375 2.671875 0.703125 L 3.171875 -4.015625 C 5.140625 -4.296875 6.472656 -4.859375 7.171875 -5.703125 C 7.878906 -6.546875 8.234375 -8 8.234375 -10.0625 L 8.296875 -36.875 C 8.296875 -38.425781 8.15625 -39.445312 7.875 -39.9375 C 7.59375 -40.425781 6.984375 -40.671875 6.046875 -40.671875 C 5.441406 -40.671875 4.71875 -40.625 3.875 -40.53125 L 3.453125 -41.171875 L 4.015625 -45.390625 L 5.421875 -45.390625 C 8.753906 -45.253906 12.53125 -45.1875 16.75 -45.1875 C 27.207031 -45.1875 34.335938 -45.46875 38.140625 -46.03125 L 38.703125 -45.25 C 38.328125 -43.507812 37.988281 -41.441406 37.6875 -39.046875 C 37.382812 -36.660156 37.1875 -34.484375 37.09375 -32.515625 L 30.828125 -32.09375 L 30.96875 -34.90625 C 30.96875 -36.3125 30.765625 -37.304688 30.359375 -37.890625 C 29.960938 -38.484375 29.164062 -38.882812 27.96875 -39.09375 C 26.769531 -39.300781 24.765625 -39.40625 21.953125 -39.40625 C 20.734375 -39.40625 19.890625 -39.359375 19.421875 -39.265625 C 18.953125 -39.171875 18.632812 -38.957031 18.46875 -38.625 C 18.3125 -38.300781 18.207031 -37.765625 18.15625 -37.015625 L 17.671875 -25.96875 L 24.28125 -25.890625 C 25.257812 -25.890625 26.488281 -25.945312 27.96875 -26.0625 C 29.445312 -26.1875 30.9375 -26.34375 32.4375 -26.53125 L 33 -25.890625 L 32.015625 -19.921875 C 31.410156 -19.921875 30.941406 -19.941406 30.609375 -19.984375 C 27.328125 -20.078125 24.722656 -20.125 22.796875 -20.125 C 21.347656 -20.125 19.539062 -19.984375 17.375 -19.703125 L 17.234375 -9.640625 C 17.234375 -8.328125 17.335938 -7.390625 17.546875 -6.828125 C 17.765625 -6.265625 18.164062 -5.890625 18.75 -5.703125 C 19.34375 -5.515625 20.363281 -5.421875 21.8125 -5.421875 C 24.914062 -5.421875 27.15625 -5.59375 28.53125 -5.9375 C 29.914062 -6.289062 30.910156 -7.007812 31.515625 -8.09375 C 32.128906 -9.175781 32.601562 -10.957031 32.9375 -13.4375 L 38.703125 -13.9375 Z M 39.203125 -13.296875 "/></g></g></g><g fill="#ffffff" fill-opacity="1"><g transform="translate(110.556442, 316.837826)"><g><path d="M 19.34375 -22.796875 C 20.050781 -22.429688 20.40625 -21.847656 20.40625 -21.046875 C 20.40625 -20.566406 20.234375 -20.101562 19.890625 -19.65625 C 19.523438 -19.175781 19.054688 -18.9375 18.484375 -18.9375 C 18.097656 -18.9375 17.710938 -19.035156 17.328125 -19.234375 C 16.203125 -19.765625 14.988281 -20.03125 13.6875 -20.03125 C 12.09375 -20.03125 10.703125 -19.691406 9.515625 -19.015625 C 8.328125 -18.335938 7.410156 -17.390625 6.765625 -16.171875 C 6.128906 -14.953125 5.8125 -13.554688 5.8125 -11.984375 C 5.8125 -9.285156 6.535156 -7.238281 7.984375 -5.84375 C 9.441406 -4.457031 11.34375 -3.765625 13.6875 -3.765625 C 15.082031 -3.765625 16.296875 -4.023438 17.328125 -4.546875 C 17.734375 -4.734375 18.097656 -4.828125 18.421875 -4.828125 C 19.015625 -4.828125 19.515625 -4.578125 19.921875 -4.078125 C 20.265625 -3.640625 20.4375 -3.171875 20.4375 -2.671875 C 20.4375 -2.304688 20.34375 -1.972656 20.15625 -1.671875 C 19.976562 -1.378906 19.71875 -1.15625 19.375 -1 C 17.59375 -0.101562 15.695312 0.34375 13.6875 0.34375 C 11.457031 0.34375 9.40625 -0.128906 7.53125 -1.078125 C 5.65625 -2.023438 4.160156 -3.421875 3.046875 -5.265625 C 1.929688 -7.117188 1.375 -9.359375 1.375 -11.984375 C 1.375 -14.304688 1.898438 -16.390625 2.953125 -18.234375 C 4.015625 -20.085938 5.484375 -21.535156 7.359375 -22.578125 C 9.234375 -23.617188 11.34375 -24.140625 13.6875 -24.140625 C 15.71875 -24.140625 17.601562 -23.691406 19.34375 -22.796875 Z M 19.34375 -22.796875 "/></g></g></g><g fill="#ffffff" fill-opacity="1"><g transform="translate(133.017468, 316.837826)"><g><path d="M 21.359375 -3.359375 C 21.660156 -3.171875 21.894531 -2.925781 22.0625 -2.625 C 22.238281 -2.332031 22.328125 -2.03125 22.328125 -1.71875 C 22.328125 -1.300781 22.1875 -0.921875 21.90625 -0.578125 C 21.5625 -0.171875 21.035156 0.03125 20.328125 0.03125 C 19.785156 0.03125 19.285156 -0.09375 18.828125 -0.34375 C 17.179688 -1.28125 16.359375 -3.1875 16.359375 -6.0625 C 16.359375 -6.882812 16.085938 -7.535156 15.546875 -8.015625 C 15.015625 -8.492188 14.25 -8.734375 13.25 -8.734375 L 6.84375 -8.734375 L 6.84375 -2.09375 C 6.84375 -1.46875 6.675781 -0.960938 6.34375 -0.578125 C 6.019531 -0.191406 5.582031 0 5.03125 0 C 4.375 0 3.796875 -0.195312 3.296875 -0.59375 C 2.804688 -1 2.5625 -1.5 2.5625 -2.09375 L 2.5625 -21.875 C 2.5625 -22.46875 2.757812 -22.960938 3.15625 -23.359375 C 3.5625 -23.765625 4.0625 -23.96875 4.65625 -23.96875 L 14.515625 -23.96875 C 15.703125 -23.96875 16.816406 -23.644531 17.859375 -23 C 18.910156 -22.363281 19.75 -21.484375 20.375 -20.359375 C 21.007812 -19.242188 21.328125 -17.992188 21.328125 -16.609375 C 21.328125 -15.460938 21.019531 -14.347656 20.40625 -13.265625 C 19.789062 -12.179688 18.988281 -11.320312 18 -10.6875 C 19.4375 -9.675781 20.226562 -8.328125 20.375 -6.640625 C 20.4375 -6.273438 20.46875 -5.921875 20.46875 -5.578125 C 20.5625 -4.867188 20.65625 -4.359375 20.75 -4.046875 C 20.84375 -3.742188 21.046875 -3.515625 21.359375 -3.359375 Z M 14.34375 -12.25 C 14.75 -12.25 15.144531 -12.441406 15.53125 -12.828125 C 15.925781 -13.222656 16.25 -13.742188 16.5 -14.390625 C 16.75 -15.046875 16.875 -15.75 16.875 -16.5 C 16.875 -17.132812 16.75 -17.71875 16.5 -18.25 C 16.25 -18.789062 15.925781 -19.222656 15.53125 -19.546875 C 15.144531 -19.867188 14.75 -20.03125 14.34375 -20.03125 L 6.84375 -20.03125 L 6.84375 -12.25 Z M 14.34375 -12.25 "/></g></g></g><g fill="#ffffff" fill-opacity="1"><g transform="translate(157.532843, 316.837826)"><g><path d="M 16.125 -3.9375 C 16.71875 -3.9375 17.210938 -3.734375 17.609375 -3.328125 C 18.015625 -2.929688 18.21875 -2.472656 18.21875 -1.953125 C 18.21875 -1.378906 18.015625 -0.910156 17.609375 -0.546875 C 17.210938 -0.179688 16.71875 0 16.125 0 L 4.65625 0 C 4.0625 0 3.5625 -0.195312 3.15625 -0.59375 C 2.757812 -1 2.5625 -1.5 2.5625 -2.09375 L 2.5625 -21.875 C 2.5625 -22.46875 2.757812 -22.960938 3.15625 -23.359375 C 3.5625 -23.765625 4.0625 -23.96875 4.65625 -23.96875 L 16.125 -23.96875 C 16.71875 -23.96875 17.210938 -23.773438 17.609375 -23.390625 C 18.015625 -23.015625 18.21875 -22.53125 18.21875 -21.9375 C 18.21875 -21.375 18.019531 -20.914062 17.625 -20.5625 C 17.238281 -20.207031 16.738281 -20.03125 16.125 -20.03125 L 6.84375 -20.03125 L 6.84375 -14.203125 L 14.578125 -14.203125 C 15.171875 -14.203125 15.664062 -14.015625 16.0625 -13.640625 C 16.46875 -13.265625 16.671875 -12.78125 16.671875 -12.1875 C 16.671875 -11.613281 16.476562 -11.148438 16.09375 -10.796875 C 15.707031 -10.441406 15.203125 -10.265625 14.578125 -10.265625 L 6.84375 -10.265625 L 6.84375 -3.9375 Z M 16.125 -3.9375 "/></g></g></g><g fill="#ffffff" fill-opacity="1"><g transform="translate(178.11071, 316.837826)"><g><path d="M 21.359375 -2.671875 C 21.472656 -2.367188 21.53125 -2.09375 21.53125 -1.84375 C 21.53125 -1.25 21.335938 -0.765625 20.953125 -0.390625 C 20.566406 -0.015625 20.117188 0.171875 19.609375 0.171875 C 19.203125 0.171875 18.832031 0.046875 18.5 -0.203125 C 18.164062 -0.453125 17.910156 -0.796875 17.734375 -1.234375 L 15.953125 -5.375 L 5.75 -5.375 L 3.96875 -1.203125 C 3.8125 -0.765625 3.566406 -0.425781 3.234375 -0.1875 C 2.898438 0.0507812 2.539062 0.171875 2.15625 0.171875 C 1.5625 0.171875 1.109375 0.015625 0.796875 -0.296875 C 0.492188 -0.617188 0.34375 -1.054688 0.34375 -1.609375 C 0.34375 -1.816406 0.375 -2.035156 0.4375 -2.265625 L 8.96875 -22.734375 C 9.15625 -23.191406 9.429688 -23.546875 9.796875 -23.796875 C 10.160156 -24.046875 10.570312 -24.144531 11.03125 -24.09375 C 11.4375 -24.09375 11.816406 -23.972656 12.171875 -23.734375 C 12.523438 -23.492188 12.78125 -23.160156 12.9375 -22.734375 Z M 7.421875 -9.3125 L 14.28125 -9.3125 L 10.8125 -17.328125 Z M 7.421875 -9.3125 "/></g></g></g><g fill="#ffffff" fill-opacity="1"><g transform="translate(200.982601, 316.837826)"><g><path d="M 18.3125 -23.96875 C 18.925781 -23.96875 19.425781 -23.785156 19.8125 -23.421875 C 20.207031 -23.054688 20.40625 -22.578125 20.40625 -21.984375 C 20.40625 -21.390625 20.207031 -20.914062 19.8125 -20.5625 C 19.425781 -20.207031 18.925781 -20.03125 18.3125 -20.03125 L 12.9375 -20.03125 L 12.9375 -2.09375 C 12.9375 -1.5 12.71875 -1 12.28125 -0.59375 C 11.851562 -0.195312 11.320312 0 10.6875 0 C 10.039062 0 9.507812 -0.195312 9.09375 -0.59375 C 8.6875 -1 8.484375 -1.5 8.484375 -2.09375 L 8.484375 -20.03125 L 3.109375 -20.03125 C 2.492188 -20.03125 1.992188 -20.210938 1.609375 -20.578125 C 1.222656 -20.941406 1.03125 -21.421875 1.03125 -22.015625 C 1.03125 -22.585938 1.226562 -23.054688 1.625 -23.421875 C 2.019531 -23.785156 2.515625 -23.96875 3.109375 -23.96875 Z M 18.3125 -23.96875 "/></g></g></g><g fill="#ffffff" fill-opacity="1"><g transform="translate(223.409379, 316.837826)"><g><path d="M 16.125 -3.9375 C 16.71875 -3.9375 17.210938 -3.734375 17.609375 -3.328125 C 18.015625 -2.929688 18.21875 -2.472656 18.21875 -1.953125 C 18.21875 -1.378906 18.015625 -0.910156 17.609375 -0.546875 C 17.210938 -0.179688 16.71875 0 16.125 0 L 4.65625 0 C 4.0625 0 3.5625 -0.195312 3.15625 -0.59375 C 2.757812 -1 2.5625 -1.5 2.5625 -2.09375 L 2.5625 -21.875 C 2.5625 -22.46875 2.757812 -22.960938 3.15625 -23.359375 C 3.5625 -23.765625 4.0625 -23.96875 4.65625 -23.96875 L 16.125 -23.96875 C 16.71875 -23.96875 17.210938 -23.773438 17.609375 -23.390625 C 18.015625 -23.015625 18.21875 -22.53125 18.21875 -21.9375 C 18.21875 -21.375 18.019531 -20.914062 17.625 -20.5625 C 17.238281 -20.207031 16.738281 -20.03125 16.125 -20.03125 L 6.84375 -20.03125 L 6.84375 -14.203125 L 14.578125 -14.203125 C 15.171875 -14.203125 15.664062 -14.015625 16.0625 -13.640625 C 16.46875 -13.265625 16.671875 -12.78125 16.671875 -12.1875 C 16.671875 -11.613281 16.476562 -11.148438 16.09375 -10.796875 C 15.707031 -10.441406 15.203125 -10.265625 14.578125 -10.265625 L 6.84375 -10.265625 L 6.84375 -3.9375 Z M 16.125 -3.9375 "/></g></g></g><g fill="#ffffff" fill-opacity="1"><g transform="translate(243.987241, 316.837826)"><g><path d="M 10.265625 0.34375 C 8.628906 0.34375 7.171875 0.140625 5.890625 -0.265625 C 4.609375 -0.679688 3.410156 -1.378906 2.296875 -2.359375 C 1.679688 -2.910156 1.375 -3.515625 1.375 -4.171875 C 1.375 -4.703125 1.566406 -5.164062 1.953125 -5.5625 C 2.335938 -5.957031 2.804688 -6.15625 3.359375 -6.15625 C 3.785156 -6.15625 4.171875 -6.019531 4.515625 -5.75 C 5.429688 -5 6.320312 -4.453125 7.1875 -4.109375 C 8.050781 -3.765625 9.078125 -3.59375 10.265625 -3.59375 C 11.546875 -3.59375 12.644531 -3.878906 13.5625 -4.453125 C 14.488281 -5.023438 14.953125 -5.734375 14.953125 -6.578125 C 14.953125 -7.597656 14.492188 -8.398438 13.578125 -8.984375 C 12.671875 -9.566406 11.226562 -10.003906 9.25 -10.296875 C 4.25 -11.035156 1.75 -13.363281 1.75 -17.28125 C 1.75 -18.71875 2.125 -19.96875 2.875 -21.03125 C 3.625 -22.09375 4.648438 -22.90625 5.953125 -23.46875 C 7.253906 -24.03125 8.703125 -24.3125 10.296875 -24.3125 C 11.742188 -24.3125 13.097656 -24.09375 14.359375 -23.65625 C 15.628906 -23.21875 16.6875 -22.644531 17.53125 -21.9375 C 18.1875 -21.414062 18.515625 -20.8125 18.515625 -20.125 C 18.515625 -19.601562 18.320312 -19.140625 17.9375 -18.734375 C 17.550781 -18.335938 17.09375 -18.140625 16.5625 -18.140625 C 16.226562 -18.140625 15.921875 -18.242188 15.640625 -18.453125 C 15.046875 -18.929688 14.21875 -19.367188 13.15625 -19.765625 C 12.101562 -20.171875 11.148438 -20.375 10.296875 -20.375 C 8.859375 -20.375 7.742188 -20.101562 6.953125 -19.5625 C 6.171875 -19.03125 5.78125 -18.328125 5.78125 -17.453125 C 5.78125 -16.472656 6.1875 -15.734375 7 -15.234375 C 7.8125 -14.734375 9.082031 -14.320312 10.8125 -14 C 12.78125 -13.65625 14.347656 -13.210938 15.515625 -12.671875 C 16.691406 -12.140625 17.578125 -11.410156 18.171875 -10.484375 C 18.765625 -9.566406 19.0625 -8.34375 19.0625 -6.8125 C 19.0625 -5.375 18.65625 -4.113281 17.84375 -3.03125 C 17.039062 -1.945312 15.960938 -1.113281 14.609375 -0.53125 C 13.265625 0.0507812 11.816406 0.34375 10.265625 0.34375 Z M 10.265625 0.34375 "/></g></g></g><g clip-path="url(#31c8716079)"><path fill="#ffffff" d="M 271.671875 197.019531 L 103.078125 197.019531 C 93.0625 197.019531 84.742188 189.730469 83.101562 180.167969 L 291.632812 180.167969 C 290.03125 189.730469 281.691406 197.019531 271.671875 197.019531 Z M 95.886719 61.238281 C 95.886719 58.804688 97.785156 56.890625 100.214844 56.890625 L 274.5 56.890625 C 276.929688 56.890625 278.847656 58.804688 278.847656 61.238281 L 278.847656 173.371094 L 95.886719 173.371094 Z M 295.285156 173.410156 L 285.625 173.410156 L 285.625 61.238281 C 285.625 55.132812 280.664062 50.152344 274.519531 50.152344 L 100.214844 50.152344 C 94.109375 50.152344 89.128906 55.132812 89.128906 61.238281 L 89.128906 173.371094 L 79.464844 173.371094 C 77.589844 173.410156 76.085938 174.914062 76.085938 176.789062 C 76.085938 191.667969 88.199219 203.777344 103.078125 203.777344 L 271.671875 203.777344 C 286.554688 203.777344 298.667969 191.667969 298.667969 176.789062 C 298.667969 174.914062 297.183594 173.410156 295.285156 173.410156 " fill-opacity="1" fill-rule="nonzero"/></g><path fill="#ffffff" d="M 259.5 158.359375 L 115.253906 158.359375 L 115.253906 72.121094 L 259.480469 72.121094 L 259.480469 158.359375 Z M 262.878906 65.386719 L 111.875 65.386719 C 109.996094 65.386719 108.496094 66.886719 108.496094 68.761719 L 108.496094 161.734375 C 108.496094 163.613281 109.996094 165.113281 111.875 165.113281 L 262.839844 165.113281 C 264.71875 165.113281 266.21875 163.613281 266.21875 161.734375 L 266.21875 68.761719 C 266.257812 66.886719 264.71875 65.386719 262.878906 65.386719 " fill-opacity="1" fill-rule="nonzero"/><path fill="#ffffff" d="M 177.871094 142.019531 C 178.265625 142.15625 178.621094 142.214844 179 142.214844 C 180.382812 142.214844 181.667969 141.347656 182.160156 139.964844 L 198.738281 92.746094 C 199.371094 90.96875 198.421875 89.054688 196.703125 88.441406 C 194.925781 87.808594 193.007812 88.757812 192.375 90.496094 L 175.796875 137.710938 C 175.203125 139.46875 176.152344 141.386719 177.871094 142.019531 Z M 230.574219 115.941406 L 208.007812 133.820312 C 206.542969 134.964844 206.289062 137.082031 207.453125 138.542969 C 208.105469 139.371094 209.113281 139.828125 210.082031 139.828125 C 210.8125 139.828125 211.542969 139.589844 212.175781 139.09375 L 238.0625 118.609375 C 238.851562 117.996094 239.347656 117.007812 239.347656 116 C 239.347656 114.992188 238.871094 114.023438 238.082031 113.371094 L 211.128906 91.382812 C 209.667969 90.21875 207.550781 90.417969 206.40625 91.878906 C 205.21875 93.339844 205.4375 95.453125 206.878906 96.601562 Z M 162.578125 139.09375 C 163.210938 139.589844 163.941406 139.828125 164.671875 139.828125 C 165.679688 139.828125 166.648438 139.371094 167.300781 138.542969 C 168.464844 137.082031 168.210938 134.964844 166.746094 133.820312 L 144.179688 115.941406 L 167.875 96.601562 C 169.316406 95.433594 169.535156 93.300781 168.347656 91.878906 C 167.183594 90.417969 165.046875 90.21875 163.625 91.382812 L 136.671875 113.371094 C 135.882812 114.023438 135.40625 114.953125 135.40625 116 C 135.40625 117.007812 135.902344 117.996094 136.710938 118.609375 L 162.578125 139.09375 " fill-opacity="1" fill-rule="nonzero"/></svg>